<svg width="63" height="29" viewBox="0 0 63 29" fill="none" xmlns="http://www.w3.org/2000/svg">
<g id="apple pay">
<path id="Vector" d="M29.3589 15.4391V22.6856H27.0464V4.82057H33.1808C34.6657 4.79666 36.1019 5.34672 37.1486 6.37509C39.2664 8.33618 39.3882 11.6126 37.3921 13.6933C37.319 13.765 37.246 13.8607 37.1486 13.9324C36.0775 14.9369 34.6657 15.487 33.1808 15.463L29.3589 15.4391ZM29.3589 7.02081V13.2389H33.2294C34.9821 13.2628 36.4427 11.8757 36.4427 10.1538C36.4427 10.1538 36.4427 10.1538 36.4427 10.1299C36.4427 9.31672 36.1019 8.5275 35.5177 7.95353C34.9334 7.33172 34.0814 6.97298 33.2294 6.9969C33.2294 7.02082 29.3589 7.02081 29.3589 7.02081ZM44.8653 10.0581C46.3502 9.98636 47.8107 10.4647 48.9305 11.4213C49.9529 12.4018 50.4885 13.765 50.4154 15.1521V22.6856H48.2002V20.9876H48.1029C47.2996 22.3029 45.839 23.0922 44.2811 23.0682C43.0396 23.1161 41.7981 22.6856 40.8731 21.8725C39.9724 21.1311 39.4855 20.0309 39.4855 18.883C39.4368 17.7111 39.9724 16.5871 40.9218 15.8696C42.0415 15.0804 43.4047 14.6738 44.7922 14.7456C45.9607 14.6977 47.1292 14.9608 48.1759 15.487V14.9608C48.1759 14.1716 47.8351 13.4302 47.2265 12.928C46.618 12.3779 45.8146 12.067 44.987 12.0909C43.7455 12.067 42.5771 12.6888 41.9198 13.7172L39.875 12.4497C40.9948 10.8473 42.8935 9.93853 44.8653 10.0581ZM41.8711 18.9308C41.8711 19.5287 42.1632 20.0788 42.6501 20.4375C43.1613 20.8441 43.7942 21.0354 44.4515 21.0354C45.4252 21.0354 46.3745 20.6528 47.0561 19.9592C47.7864 19.3135 48.2002 18.4047 48.2002 17.4481C47.3239 16.8262 46.2528 16.5393 45.1817 16.611C44.3541 16.5871 43.5264 16.8262 42.8205 17.2806C42.2363 17.6155 41.8955 18.2373 41.8711 18.9308ZM63.0006 10.4408L55.284 28.0427H52.8984L55.7708 21.8964L50.6588 10.4408H53.1905L56.8662 19.2178H56.9149L60.469 10.4408H63.0006Z" fill="black"/>
<path id="Vector_2" d="M14.5301 3.9329C15.409 2.86029 16.0347 1.43015 15.8559 0C14.5301 0.0595894 12.9659 0.834252 12.0125 1.84727C11.1932 2.74111 10.4334 4.23085 10.6271 5.6014C12.1466 5.78017 13.5916 5.00551 14.5301 3.9329ZM15.8559 5.95894C13.7108 5.83976 11.8933 7.09114 10.8803 7.09114C9.86732 7.09114 8.30312 6.01853 6.60485 6.01853C4.40008 6.07812 2.38897 7.21032 1.25679 9.11718C-1.00757 12.8713 0.631114 18.4131 2.89547 21.4373C3.96806 22.927 5.27901 24.5955 6.99217 24.5359C8.63086 24.4763 9.25653 23.5229 11.2081 23.5229C13.1596 23.5229 13.7257 24.5359 15.4835 24.4763C17.2414 24.4168 18.3736 22.9866 19.4461 21.4373C20.6975 19.7092 21.204 18.0407 21.204 17.9811C21.1444 17.9215 17.7479 16.7297 17.7479 13.0352C17.6883 9.93653 20.3847 8.4468 20.5187 8.38721C19.0588 6.25689 16.6753 6.01853 15.8559 5.95894Z" fill="black"/>
</g>
</svg>
