<svg width="511" height="343" viewBox="0 0 511 343" fill="none" xmlns="http://www.w3.org/2000/svg">
<mask id="path-1-outside-1_25478_105024" maskUnits="userSpaceOnUse" x="-1.6006" y="0" width="512.84" height="344.412" fill="black">
<rect fill="white" x="-1.6006" width="512.84" height="344.412"/>
<path d="M173.824 7.71345C178.9 3.45343 187.669 2.68629 193.408 6L500.302 183.185C506.041 186.499 506.578 192.638 501.502 196.898L336.871 335.04C331.794 339.3 323.025 340.067 317.286 336.754L10.3925 159.569C4.65294 156.255 4.11579 150.115 9.19269 145.855L173.824 7.71345Z"/>
</mask>
<path d="M173.824 7.71345C178.9 3.45343 187.669 2.68629 193.408 6L500.302 183.185C506.041 186.499 506.578 192.638 501.502 196.898L336.871 335.04C331.794 339.3 323.025 340.067 317.286 336.754L10.3925 159.569C4.65294 156.255 4.11579 150.115 9.19269 145.855L173.824 7.71345Z" fill="#D82C4E"/>
<path d="M183.016 0L510.694 189.185L183.016 0ZM336.871 335.04C330.948 340.01 320.718 340.905 314.022 337.039L10.5924 161.854C3.89632 157.988 3.26964 150.825 9.19269 145.855C4.96194 149.405 6.18504 154.969 11.9245 158.283L318.818 335.468C324.557 338.782 332.64 338.59 336.871 335.04ZM0.000153287 153.569L183.016 0L0.000153287 153.569ZM510.694 189.185L327.678 342.754L510.694 189.185Z" fill="url(#paint0_linear_25478_105024)" mask="url(#path-1-outside-1_25478_105024)"/>
<path fill-rule="evenodd" clip-rule="evenodd" d="M194.208 31.0352C191.748 33.0992 188.14 33.9168 185.151 33.2245C184.852 33.1517 184.52 33.2772 184.455 33.5227L182.575 41.5395L178.782 39.3497L181.553 27.7464L184.539 29.4704C186.624 30.674 189.166 30.5413 190.837 29.139C191.884 28.2601 192.307 27.3535 192.148 26.362C191.969 25.2746 190.798 24.599 189.023 23.574L186.858 22.3237L171.546 35.1718L168.358 33.3314L186.483 18.123L192.347 21.5088C194.378 22.6814 195.736 23.7324 196.308 25.3294C196.97 27.2122 196.162 29.3959 194.208 31.0352ZM190.212 35.7959C194.39 32.2901 200.883 31.7379 205.645 34.4869C210.352 37.2048 210.504 41.7265 206.033 45.4969C206.033 45.4969 205.601 45.8975 205.285 45.9151C205.019 45.9284 204.705 45.6969 204.705 45.6969L192.411 38.5992C190.762 40.631 191.241 42.8581 193.729 44.2947C195.653 45.4051 198.148 45.5787 200.559 44.7368C200.559 44.7368 200.861 44.5782 201.016 44.6008C201.184 44.6312 201.399 44.7554 201.399 44.7554L204.022 46.2697C204.022 46.2697 204.342 46.4208 204.342 46.5541C204.347 46.7404 203.38 46.9991 203.38 46.9991C198.916 48.7062 194.555 48.5555 191.112 46.5675C186.619 43.9738 186.222 39.1437 190.212 35.7959ZM202.728 36.5536C200.468 35.249 197.571 35.2602 195.014 36.5677L204.335 41.9492C205.7 39.7368 205.176 37.9669 202.728 36.5536ZM240.003 54.2612C235.605 51.7219 228.767 52.3918 224.742 55.7692C220.764 59.1072 221.159 63.9196 225.638 66.5055C230.076 69.0681 237.002 68.382 241.074 64.9651C245.005 61.6666 244.522 56.8704 240.003 54.2612ZM228.321 64.2539C225.537 62.6465 225.391 59.7781 227.992 57.5956C230.864 55.1859 234.989 55.1341 237.316 56.4775C240.208 58.1471 240.401 60.976 237.753 63.198C235.129 65.4003 231.079 65.8458 228.321 64.2539ZM287.203 95.1442L300.689 89.8105L304.226 91.8528L278.084 102.015L274.708 100.066L281.598 97.4091L288.933 83.0234L292.43 85.0425L287.203 95.1442ZM234.541 45.8856L231.434 44.0918C231.42 44.084 231.42 44.084 231.408 44.0939L226.159 48.4984C225.808 46.9452 224.648 45.5753 222.765 44.4881C218.192 41.8478 211.663 42.4296 207.591 45.8466C203.554 49.2339 203.9 53.9349 208.406 56.5363C210.209 57.5769 212.435 58.1286 214.696 58.1172L213.59 59.0455C213.578 59.0554 213.578 59.0554 213.591 59.0631L216.698 60.8569C216.712 60.8647 216.712 60.8647 216.724 60.8548L234.541 45.8856ZM211.162 54.3764C208.727 52.9709 207.954 50.0571 210.873 47.608C213.321 45.5539 217.514 45.1408 220.218 46.7017C222.356 47.9364 223.064 50.5622 221.04 52.7942L219.721 53.9003C217.287 55.4287 213.435 55.6888 211.162 54.3764ZM284.799 80.7035L287.906 82.4974L274.185 94.0299C274.179 94.0348 274.176 94.0373 274.173 94.0376C274.17 94.0379 274.167 94.0359 274.16 94.032L271.053 92.2382C271.046 92.2343 271.043 92.2324 271.043 92.2302C271.042 92.228 271.045 92.2255 271.051 92.2206L272.169 91.2824C269.948 91.3171 267.684 90.7597 265.827 89.6881C261.254 87.0478 260.869 82.4746 264.942 79.0576C269.061 75.6012 275.68 75.0385 280.347 77.7331C282.163 78.7814 283.296 80.1358 283.632 81.6636L284.774 80.7057C284.78 80.7007 284.783 80.6983 284.786 80.698C284.789 80.6977 284.793 80.6996 284.799 80.7035ZM268.082 80.9375C265.622 83.0015 265.826 85.9363 268.529 87.4971C270.789 88.8017 274.938 88.7302 277.724 86.6211L278.277 86.157C280.34 84.1973 280.1 81.2745 277.692 79.8845C275.258 78.479 271.001 78.4884 268.082 80.9375ZM272.419 68.8386C271.817 67.5909 270.306 66.5349 268.248 65.3467L266.123 64.1198L264.482 63.1724L264.092 62.9472C263.769 62.7608 263.29 62.8009 263.007 63.0379L245.907 77.3871C245.624 77.6241 245.656 77.9593 245.979 78.1457L248.01 79.3183C248.333 79.5047 248.812 79.4646 249.094 79.2276L255.732 73.6577L257.615 74.7449C259.969 76.1039 261.677 76.69 263.518 76.8027C266.138 76.948 268.826 76.083 270.733 74.4831C272.718 72.7789 273.329 70.7807 272.419 68.8386ZM260.707 72.5124L258.555 71.27L263.887 66.7963L265.877 67.9456C269.28 69.9103 268.897 71.2226 267.273 72.5855C265.965 73.664 264.177 74.5159 260.707 72.5124ZM244.612 73.122L246.481 74.2014C246.791 74.38 246.823 74.7152 246.552 74.9423L244.798 76.4138C244.528 76.6409 244.048 76.681 243.739 76.5024L241.089 74.9726C241.055 74.9443 241.04 74.9234 241.026 74.9024C241.011 74.8814 240.996 74.8604 240.962 74.8321C238.3 72.512 240.266 70.3294 240.943 69.7036L247.722 64.0153L245.261 62.5942C244.952 62.4156 244.92 62.0805 245.19 61.8533L246.944 60.3819C247.215 60.1547 247.694 60.1146 248.003 60.2932L250.465 61.7143L252.277 60.1935C252.548 59.9663 253.027 59.9262 253.336 60.1049L255.34 61.2619C255.65 61.4405 255.682 61.7757 255.411 62.0028L253.587 63.5335L256.115 64.9935C256.425 65.1721 256.457 65.5072 256.186 65.7344L254.432 67.2058C254.162 67.433 253.682 67.4731 253.373 67.2945L250.844 65.8346L246.396 69.5675L246.254 69.686L245.878 70.002C245.103 70.6715 243.832 72.0048 244.598 73.1142L244.612 73.122Z" fill="url(#paint1_linear_25478_105024)" fill-opacity="0.8"/>
<mask id="mask0_25478_105024" style="mask-type:luminance" maskUnits="userSpaceOnUse" x="123" y="76" width="57" height="39">
<path d="M161.5 112.776C159.535 114.425 156.038 114.633 153.816 113.35L125.512 96.8233C123.291 95.5407 122.937 93.1101 124.903 91.4612L141.819 77.4766C143.784 75.8278 147.281 75.6203 149.502 76.9028L177.806 93.4297C180.028 94.7122 180.381 97.1429 178.416 98.7917L161.5 112.776Z" fill="white"/>
</mask>
<g mask="url(#mask0_25478_105024)">
<mask id="mask1_25478_105024" style="mask-type:luminance" maskUnits="userSpaceOnUse" x="-767" y="-382" width="1876" height="1226">
<path d="M-224.281 -381.426L-766.624 73.6543L566.263 843.197L1108.61 388.117L-224.281 -381.426Z" fill="white"/>
</mask>
<g mask="url(#mask1_25478_105024)">
<mask id="mask2_25478_105024" style="mask-type:luminance" maskUnits="userSpaceOnUse" x="-767" y="-382" width="1876" height="1226">
<path d="M-224.277 -381.428L-766.621 73.6523L566.267 843.195L1108.61 388.115L-224.277 -381.428Z" fill="white"/>
</mask>
<g mask="url(#mask2_25478_105024)">
<rect width="708.39" height="1539.5" transform="matrix(0.766044 -0.642788 0.866025 0.5 -766.797 73.7188)" fill="url(#paint2_linear_25478_105024)"/>
</g>
</g>
</g>
<mask id="mask3_25478_105024" style="mask-type:luminance" maskUnits="userSpaceOnUse" x="123" y="75" width="57" height="40">
<path d="M177.441 92.4754L150.914 76.9746C147.952 75.2645 143.339 75.5697 140.719 77.7682L125.244 90.5436C122.624 92.7421 122.766 95.9789 125.728 97.6889L152.255 113.19C155.217 114.9 159.83 114.595 162.451 112.396L177.926 99.6208C180.694 97.5078 180.403 94.1855 177.441 92.4754ZM141.442 78.0003L142.297 78.1225C144.689 76.5347 148.334 76.4127 150.852 77.8663L155.591 80.6024C155.449 82.1903 154.6 83.7414 152.88 84.975C151.57 86.0742 149.947 86.807 148.158 87.2589L138.07 81.2491L140.69 79.0507L140.36 78.4888L141.442 78.0003ZM133.32 84.8155L134.237 84.046L135.092 84.1682L137.843 81.8598L148.209 87.8452C147.885 88.9567 147.15 90.2025 145.971 91.1918C144.661 92.291 142.907 93.1337 141.266 93.6711L131.03 87.5758L133.781 85.2675L133.32 84.8155ZM127.124 97.5669C124.606 96.1133 124.384 93.5727 126.035 91.5575L125.836 90.8857L126.622 90.2261L127.476 90.3483L130.096 88.1498L140.315 94.0497C139.86 95.2711 139.256 96.407 138.077 97.3963C136.374 98.8253 134.506 99.9734 132.142 100.279L127.124 97.5669ZM132.899 100.902C134.967 100.425 136.852 99.4727 138.293 98.2635C139.734 97.0544 140.6 95.6986 141.039 94.2818C142.958 93.72 144.712 92.8773 146.153 91.6682C147.594 90.459 148.46 89.1032 148.768 87.7963C150.687 87.2345 152.441 86.3918 153.751 85.2926C155.192 84.0835 155.762 82.5567 156.2 81.1399L176.211 92.8784C178.58 94.2465 178.934 96.6772 177.265 98.497L177.595 99.0589L176.809 99.7184L176.103 99.6818L173.483 101.88L162.951 95.6139C162.951 95.6139 160.16 95.8581 157.409 98.1665C155.968 99.3756 155.102 100.731 154.664 102.148C152.744 102.71 150.99 103.553 149.549 104.762C147.977 106.081 146.98 107.547 146.69 109.049L132.899 100.902ZM161.875 112.25L161.021 112.127C158.629 113.715 154.983 113.837 152.466 112.384L147.726 109.647C147.721 107.974 148.848 106.399 150.682 104.86C151.861 103.87 153.502 103.333 155.011 102.906L165.099 108.915L162.479 111.114L162.809 111.676L161.875 112.25ZM169.49 106.07L168.636 105.947L165.885 108.256L155.518 102.27C155.957 100.854 156.691 99.6078 158.132 98.3986C159.311 97.4093 160.952 96.8719 162.313 96.359L172.697 102.54L169.946 104.848L170.276 105.41L169.49 106.07ZM146.348 105.14L138.498 100.609C138.202 100.438 137.644 100.486 137.382 100.706C137.12 100.926 137.154 101.317 137.45 101.488L145.3 106.02C145.596 106.191 146.154 106.142 146.416 105.922C146.678 105.702 146.644 105.311 146.348 105.14ZM165.884 88.9573L158.035 84.4256C157.739 84.2546 157.18 84.3034 156.918 84.5232C156.656 84.7431 156.691 85.1339 156.987 85.3049L164.836 89.8367C165.132 90.0077 165.69 89.9589 165.952 89.739C166.214 89.5192 166.18 89.1283 165.884 88.9573Z" fill="white"/>
</mask>
<g mask="url(#mask3_25478_105024)">
<mask id="mask4_25478_105024" style="mask-type:luminance" maskUnits="userSpaceOnUse" x="-767" y="-382" width="1876" height="1226">
<path d="M-224.28 -381.428L-766.624 73.6523L566.263 843.195L1108.61 388.115L-224.28 -381.428Z" fill="white"/>
</mask>
<g mask="url(#mask4_25478_105024)">
<path d="M144.582 64.0373L106.33 96.1348L158.757 126.403L197.009 94.306L144.582 64.0373Z" fill="#611121"/>
</g>
</g>
<path d="M192.961 113.646C193.872 116.888 189.968 119.62 185.955 119.525" stroke="#EAEAEA" stroke-opacity="0.8" stroke-miterlimit="10" stroke-linecap="round" stroke-linejoin="round"/>
<path d="M199.547 113.73C200.163 119.208 193.019 124.418 186.412 124.752" stroke="#EAEAEA" stroke-opacity="0.8" stroke-miterlimit="10" stroke-linecap="round" stroke-linejoin="round"/>
<path d="M206.592 113.389C207.783 121.388 197.454 128.867 187.717 129.227" stroke="#EAEAEA" stroke-opacity="0.8" stroke-miterlimit="10" stroke-linecap="round" stroke-linejoin="round"/>
<defs>
<linearGradient id="paint0_linear_25478_105024" x1="85.9717" y1="65.8506" x2="430.098" y2="235.707" gradientUnits="userSpaceOnUse">
<stop stop-color="#50CFFC"/>
<stop offset="0.41" stop-color="#BC05FF"/>
<stop offset="1" stop-color="#FA7CAA"/>
</linearGradient>
<linearGradient id="paint1_linear_25478_105024" x1="197.227" y1="29.6945" x2="259.138" y2="128.99" gradientUnits="userSpaceOnUse">
<stop stop-color="#E4E4E4"/>
<stop offset="1" stop-color="#EF5F7C"/>
</linearGradient>
<linearGradient id="paint2_linear_25478_105024" x1="672.146" y1="1510.54" x2="-163.982" y2="1149.31" gradientUnits="userSpaceOnUse">
<stop stop-color="#B5B8B3"/>
<stop offset="0.465" stop-color="#D9D9D9"/>
<stop offset="1" stop-color="#B9B9B9"/>
</linearGradient>
</defs>
</svg>
