<svg width="512" height="343" viewBox="0 0 512 343" fill="none" xmlns="http://www.w3.org/2000/svg">
<mask id="path-1-outside-1_24981_81568" maskUnits="userSpaceOnUse" x="-0.844004" y="0" width="512.84" height="344.412" fill="black">
<rect fill="white" x="-0.844004" width="512.84" height="344.412"/>
<path d="M174.58 7.71345C179.657 3.45343 188.425 2.68629 194.165 6L501.058 183.185C506.798 186.499 507.335 192.638 502.258 196.898L337.627 335.04C332.55 339.3 323.782 340.067 318.042 336.754L11.149 159.569C5.40953 156.255 4.87238 150.115 9.94928 145.855L174.58 7.71345Z"/>
</mask>
<path d="M174.58 7.71345C179.657 3.45343 188.425 2.68629 194.165 6L501.058 183.185C506.798 186.499 507.335 192.638 502.258 196.898L337.627 335.04C332.55 339.3 323.782 340.067 318.042 336.754L11.149 159.569C5.40953 156.255 4.87238 150.115 9.94928 145.855L174.58 7.71345Z" fill="url(#paint0_linear_24981_81568)"/>
<path d="M183.773 0L511.451 189.185L183.773 0ZM337.627 335.04C331.704 340.01 321.474 340.905 314.778 337.039L11.349 161.854C4.65292 157.988 4.02623 150.825 9.94928 145.855C5.71853 149.405 6.94163 154.969 12.6811 158.283L319.575 335.468C325.314 338.782 333.397 338.59 337.627 335.04ZM0.756745 153.569L183.773 0L0.756745 153.569ZM511.451 189.185L328.435 342.754L511.451 189.185Z" fill="url(#paint1_linear_24981_81568)" mask="url(#path-1-outside-1_24981_81568)"/>
<path fill-rule="evenodd" clip-rule="evenodd" d="M194.965 31.0352C192.505 33.0992 188.897 33.9168 185.907 33.2245C185.608 33.1517 185.277 33.2772 185.211 33.5227L183.331 41.5395L179.539 39.3497L182.31 27.7464L185.295 29.4704C187.38 30.674 189.922 30.5413 191.594 29.139C192.641 28.2601 193.063 27.3535 192.905 26.362C192.725 25.2746 191.555 24.599 189.78 23.574L187.614 22.3237L172.302 35.1718L169.115 33.3314L187.239 18.123L193.104 21.5088C195.135 22.6814 196.493 23.7324 197.065 25.3294C197.727 27.2122 196.918 29.3959 194.965 31.0352ZM190.969 35.7959C195.147 32.2901 201.64 31.7379 206.401 34.4869C211.109 37.2048 211.26 41.7265 206.79 45.4969C206.79 45.4969 206.358 45.8975 206.041 45.9151C205.776 45.9284 205.461 45.6969 205.461 45.6969L193.168 38.5992C191.518 40.631 191.998 42.8581 194.486 44.2947C196.409 45.4051 198.904 45.5787 201.315 44.7368C201.315 44.7368 201.618 44.5782 201.773 44.6008C201.941 44.6312 202.156 44.7554 202.156 44.7554L204.779 46.2697C204.779 46.2697 205.098 46.4208 205.098 46.5541C205.103 46.7404 204.137 46.9991 204.137 46.9991C199.673 48.7062 195.311 48.5555 191.868 46.5675C187.376 43.9738 186.979 39.1437 190.969 35.7959ZM203.484 36.5536C201.225 35.249 198.328 35.2602 195.771 36.5677L205.092 41.9492C206.457 39.7368 205.932 37.9669 203.484 36.5536ZM240.76 54.2612C236.361 51.7219 229.524 52.3918 225.499 55.7692C221.521 59.1072 221.916 63.9196 226.394 66.5055C230.833 69.0681 237.758 68.382 241.83 64.9651C245.761 61.6666 245.279 56.8704 240.76 54.2612ZM229.078 64.2539C226.294 62.6465 226.147 59.7781 228.748 57.5956C231.62 55.1859 235.746 55.1341 238.073 56.4775C240.965 58.1471 241.158 60.976 238.51 63.198C235.885 65.4003 231.835 65.8458 229.078 64.2539ZM287.96 95.1442L301.445 89.8105L304.983 91.8528L278.84 102.015L275.464 100.066L282.354 97.4091L289.69 83.0234L293.187 85.0425L287.96 95.1442ZM235.297 45.8856L232.19 44.0918C232.177 44.084 232.177 44.084 232.165 44.0939L226.916 48.4984C226.564 46.9452 225.404 45.5753 223.521 44.4881C218.948 41.8478 212.42 42.4296 208.348 45.8466C204.311 49.2339 204.657 53.9349 209.163 56.5363C210.965 57.5769 213.191 58.1286 215.453 58.1172L214.346 59.0455C214.334 59.0554 214.334 59.0554 214.348 59.0631L217.455 60.8569C217.468 60.8647 217.468 60.8647 217.48 60.8548L235.297 45.8856ZM211.919 54.3764C209.484 52.9709 208.711 50.0571 211.629 47.608C214.077 45.5539 218.271 45.1408 220.974 46.7017C223.113 47.9364 223.821 50.5622 221.796 52.7942L220.478 53.9003C218.043 55.4287 214.192 55.6888 211.919 54.3764ZM285.556 80.7035L288.663 82.4974L274.942 94.0299C274.936 94.0348 274.933 94.0373 274.93 94.0376C274.927 94.0379 274.923 94.0359 274.916 94.032L271.809 92.2382C271.803 92.2343 271.799 92.2324 271.799 92.2302C271.799 92.228 271.802 92.2255 271.808 92.2206L272.926 91.2824C270.705 91.3171 268.44 90.7597 266.584 89.6881C262.011 87.0478 261.626 82.4746 265.698 79.0576C269.817 75.6012 276.437 75.0385 281.104 77.7331C282.92 78.7814 284.053 80.1358 284.389 81.6636L285.531 80.7057C285.537 80.7007 285.539 80.6983 285.543 80.698C285.546 80.6977 285.549 80.6996 285.556 80.7035ZM268.839 80.9375C266.379 83.0015 266.582 85.9363 269.286 87.4971C271.546 88.8017 275.695 88.7302 278.481 86.6211L279.034 86.157C281.097 84.1973 280.857 81.2745 278.449 79.8845C276.015 78.479 271.758 78.4884 268.839 80.9375ZM273.176 68.8386C272.574 67.5909 271.062 66.5349 269.005 65.3467L266.879 64.1198L265.239 63.1724L264.848 62.9472C264.526 62.7608 264.047 62.8009 263.764 63.0379L246.663 77.3871C246.381 77.6241 246.413 77.9593 246.736 78.1457L248.767 79.3183C249.089 79.5047 249.569 79.4646 249.851 79.2276L256.489 73.6577L258.372 74.7449C260.726 76.1039 262.434 76.69 264.275 76.8027C266.894 76.948 269.583 76.083 271.489 74.4831C273.475 72.7789 274.085 70.7807 273.176 68.8386ZM261.464 72.5124L259.312 71.27L264.643 66.7963L266.634 67.9456C270.037 69.9103 269.653 71.2226 268.029 72.5855C266.721 73.664 264.934 74.5159 261.464 72.5124ZM245.368 73.122L247.238 74.2014C247.547 74.38 247.579 74.7152 247.309 74.9423L245.555 76.4138C245.284 76.6409 244.805 76.681 244.496 76.5024L241.846 74.9726C241.812 74.9443 241.797 74.9234 241.782 74.9024C241.767 74.8814 241.753 74.8604 241.718 74.8321C239.057 72.512 241.022 70.3294 241.7 69.7036L248.479 64.0153L246.018 62.5942C245.708 62.4156 245.676 62.0805 245.947 61.8533L247.701 60.3819C247.971 60.1547 248.45 60.1146 248.76 60.2932L251.221 61.7143L253.034 60.1935C253.304 59.9663 253.783 59.9262 254.093 60.1049L256.097 61.2619C256.406 61.4405 256.438 61.7757 256.167 62.0028L254.343 63.5335L256.872 64.9935C257.181 65.1721 257.213 65.5072 256.942 65.7344L255.189 67.2058C254.918 67.433 254.439 67.4731 254.13 67.2945L251.601 65.8346L247.152 69.5675L247.011 69.686L246.634 70.002C245.859 70.6715 244.588 72.0048 245.355 73.1142L245.368 73.122Z" fill="url(#paint2_linear_24981_81568)" fill-opacity="0.8"/>
<mask id="mask0_24981_81568" style="mask-type:luminance" maskUnits="userSpaceOnUse" x="124" y="76" width="57" height="39">
<path d="M162.257 112.776C160.292 114.425 156.794 114.633 154.573 113.35L126.269 96.8233C124.047 95.5407 123.694 93.1101 125.659 91.4612L142.575 77.4766C144.54 75.8278 148.038 75.6203 150.259 76.9028L178.563 93.4297C180.785 94.7122 181.138 97.1429 179.173 98.7917L162.257 112.776Z" fill="white"/>
</mask>
<g mask="url(#mask0_24981_81568)">
<mask id="mask1_24981_81568" style="mask-type:luminance" maskUnits="userSpaceOnUse" x="-766" y="-382" width="1876" height="1226">
<path d="M-223.524 -381.426L-765.868 73.6543L567.02 843.197L1109.36 388.117L-223.524 -381.426Z" fill="white"/>
</mask>
<g mask="url(#mask1_24981_81568)">
<mask id="mask2_24981_81568" style="mask-type:luminance" maskUnits="userSpaceOnUse" x="-766" y="-382" width="1876" height="1226">
<path d="M-223.52 -381.428L-765.864 73.6523L567.023 843.195L1109.37 388.115L-223.52 -381.428Z" fill="white"/>
</mask>
<g mask="url(#mask2_24981_81568)">
<rect width="708.39" height="1539.5" transform="matrix(0.766044 -0.642788 0.866025 0.5 -766.041 73.7188)" fill="url(#paint3_linear_24981_81568)"/>
</g>
</g>
</g>
<mask id="mask3_24981_81568" style="mask-type:luminance" maskUnits="userSpaceOnUse" x="124" y="75" width="57" height="40">
<path d="M178.198 92.4754L151.671 76.9746C148.709 75.2645 144.095 75.5697 141.475 77.7682L126 90.5436C123.38 92.7421 123.523 95.9789 126.485 97.6889L153.011 113.19C155.973 114.9 160.587 114.595 163.207 112.396L178.682 99.6208C181.45 97.5078 181.16 94.1855 178.198 92.4754ZM142.199 78.0003L143.053 78.1225C145.445 76.5347 149.091 76.4127 151.608 77.8663L156.348 80.6024C156.205 82.1903 155.357 83.7414 153.637 84.975C152.327 86.0742 150.703 86.807 148.915 87.2589L138.827 81.2491L141.447 79.0507L141.117 78.4888L142.199 78.0003ZM134.077 84.8155L134.994 84.046L135.848 84.1682L138.599 81.8598L148.966 87.8452C148.641 88.9567 147.907 90.2025 146.728 91.1918C145.418 92.291 143.663 93.1337 142.023 93.6711L131.787 87.5758L134.538 85.2675L134.077 84.8155ZM127.88 97.5669C125.362 96.1133 125.14 93.5727 126.792 91.5575L126.593 90.8857L127.379 90.2261L128.233 90.3483L130.853 88.1498L141.072 94.0497C140.616 95.2711 140.012 96.407 138.833 97.3963C137.13 98.8253 135.262 99.9734 132.898 100.279L127.88 97.5669ZM133.656 100.902C135.724 100.425 137.609 99.4727 139.05 98.2635C140.491 97.0544 141.357 95.6986 141.795 94.2818C143.715 93.72 145.469 92.8773 146.91 91.6682C148.351 90.459 149.217 89.1032 149.524 87.7963C151.444 87.2345 153.198 86.3918 154.508 85.2926C155.949 84.0835 156.519 82.5567 156.957 81.1399L176.967 92.8784C179.337 94.2465 179.69 96.6772 178.021 98.497L178.352 99.0589L177.566 99.7184L176.86 99.6818L174.24 101.88L163.707 95.6139C163.707 95.6139 160.916 95.8581 158.165 98.1665C156.724 99.3756 155.859 100.731 155.42 102.148C153.501 102.71 151.746 103.553 150.305 104.762C148.733 106.081 147.737 107.547 147.446 109.049L133.656 100.902ZM162.632 112.25L161.777 112.127C159.385 113.715 155.74 113.837 153.222 112.384L148.483 109.647C148.477 107.974 149.605 106.399 151.439 104.86C152.618 103.87 154.258 103.333 155.768 102.906L165.856 108.915L163.235 111.114L163.566 111.676L162.632 112.25ZM170.247 106.07L169.393 105.947L166.642 108.256L156.275 102.27C156.713 100.854 157.448 99.6078 158.889 98.3986C160.068 97.4093 161.708 96.8719 163.07 96.359L173.454 102.54L170.703 104.848L171.033 105.41L170.247 106.07ZM147.104 105.14L139.255 100.609C138.959 100.438 138.401 100.486 138.139 100.706C137.877 100.926 137.911 101.317 138.207 101.488L146.056 106.02C146.353 106.191 146.911 106.142 147.173 105.922C147.435 105.702 147.401 105.311 147.104 105.14ZM166.641 88.9573L158.791 84.4256C158.495 84.2546 157.937 84.3034 157.675 84.5232C157.413 84.7431 157.447 85.1339 157.743 85.3049L165.593 89.8367C165.889 90.0077 166.447 89.9589 166.709 89.739C166.971 89.5192 166.937 89.1283 166.641 88.9573Z" fill="white"/>
</mask>
<g mask="url(#mask3_24981_81568)">
<mask id="mask4_24981_81568" style="mask-type:luminance" maskUnits="userSpaceOnUse" x="-766" y="-382" width="1876" height="1226">
<path d="M-223.524 -381.428L-765.867 73.6523L567.02 843.195L1109.36 388.115L-223.524 -381.428Z" fill="white"/>
</mask>
<g mask="url(#mask4_24981_81568)">
<path d="M145.339 64.0373L107.086 96.1348L159.513 126.403L197.765 94.306L145.339 64.0373Z" fill="black"/>
</g>
</g>
<path d="M193.717 113.646C194.628 116.888 190.725 119.62 186.712 119.525" stroke="#EAEAEA" stroke-opacity="0.8" stroke-miterlimit="10" stroke-linecap="round" stroke-linejoin="round"/>
<path d="M200.303 113.73C200.92 119.208 193.775 124.418 187.168 124.752" stroke="#EAEAEA" stroke-opacity="0.8" stroke-miterlimit="10" stroke-linecap="round" stroke-linejoin="round"/>
<path d="M207.349 113.389C208.54 121.388 198.211 128.867 188.473 129.227" stroke="#EAEAEA" stroke-opacity="0.8" stroke-miterlimit="10" stroke-linecap="round" stroke-linejoin="round"/>
<defs>
<linearGradient id="paint0_linear_24981_81568" x1="101.922" y1="74.8738" x2="416.552" y2="185.551" gradientUnits="userSpaceOnUse">
<stop stop-color="#111111"/>
<stop offset="0.363633" stop-color="#1C1C1C"/>
<stop offset="0.579006" stop-color="#2A2929"/>
<stop offset="0.78521" stop-color="#292929"/>
<stop offset="1" stop-color="#303030"/>
</linearGradient>
<linearGradient id="paint1_linear_24981_81568" x1="86.7283" y1="65.8506" x2="430.855" y2="235.707" gradientUnits="userSpaceOnUse">
<stop stop-color="#50CFFC"/>
<stop offset="0.41" stop-color="#BC05FF"/>
<stop offset="1" stop-color="#FA7CAA"/>
</linearGradient>
<linearGradient id="paint2_linear_24981_81568" x1="197.983" y1="29.6945" x2="259.895" y2="128.99" gradientUnits="userSpaceOnUse">
<stop stop-color="#E4E4E4"/>
<stop offset="1" stop-color="#878382"/>
</linearGradient>
<linearGradient id="paint3_linear_24981_81568" x1="672.146" y1="1510.54" x2="-163.982" y2="1149.31" gradientUnits="userSpaceOnUse">
<stop stop-color="#B5B8B3"/>
<stop offset="0.465" stop-color="#D9D9D9"/>
<stop offset="1" stop-color="#B9B9B9"/>
</linearGradient>
</defs>
</svg>
