<svg width="64" height="24" viewBox="0 0 64 24" fill="none" xmlns="http://www.w3.org/2000/svg">
<g id="google pay" clip-path="url(#clip0_22021_17452)">
<path id="Vector" d="M29.8769 11.6723V18.7601H27.5312V1.28638H33.7535C35.2596 1.26298 36.7164 1.801 37.7782 2.80684C39.9263 4.72497 40.0498 7.92965 38.0251 9.96474C37.951 10.0349 37.8769 10.1285 37.7782 10.1987C36.6917 11.1811 35.2596 11.7191 33.7535 11.6957L29.8769 11.6723ZM29.8769 3.43842V9.52029H33.8029C35.5806 9.54369 37.0621 8.18696 37.0621 6.50275C37.0621 6.50275 37.0621 6.50275 37.0621 6.47936C37.0621 5.68404 36.7164 4.91211 36.1238 4.3507C35.5313 3.74252 34.6671 3.39164 33.8029 3.41503C33.8029 3.43842 29.8769 3.43842 29.8769 3.43842ZM45.6053 6.40918C47.1115 6.33901 48.593 6.80684 49.7288 7.74252C50.7658 8.70158 51.309 10.0349 51.235 11.3916V18.7601H48.988V17.0992H48.8893C48.0745 18.3858 46.593 19.1577 45.0127 19.1343C43.7535 19.1811 42.4942 18.7601 41.5559 17.9647C40.6424 17.2396 40.1485 16.1636 40.1485 15.0408C40.0992 13.8946 40.6424 12.7951 41.6053 12.0934C42.7411 11.3215 44.1238 10.9238 45.5312 10.994C46.7164 10.9472 47.9016 11.2045 48.9634 11.7191V11.2045C48.9634 10.4326 48.6177 9.70743 48.0004 9.2162C47.3831 8.67819 46.5683 8.3741 45.7288 8.39749C44.4695 8.3741 43.2843 8.98228 42.6177 9.98813L40.5436 8.74836C41.6794 7.18111 43.6053 6.29222 45.6053 6.40918ZM42.5683 15.0875C42.5683 15.6723 42.8646 16.2104 43.3584 16.5612C43.8769 16.9589 44.5189 17.146 45.1856 17.146C46.1732 17.146 47.1362 16.7718 47.8275 16.0934C48.5683 15.4618 48.988 14.5729 48.988 13.6373C48.0991 13.0291 47.0127 12.7484 45.9263 12.8185C45.0868 12.7951 44.2473 13.0291 43.5312 13.4735C42.9387 13.801 42.593 14.4092 42.5683 15.0875ZM64.0004 6.78345L56.1732 23.9998H53.7535L56.6671 17.9881L51.4819 6.78345H54.0498L57.7782 15.3682H57.8275L61.4325 6.78345H64.0004Z" fill="black"/>
<path id="Vector_2" d="M20.5186 10.2454C20.5186 9.54365 20.4445 8.84189 20.3211 8.14014H10.4692V11.9764H16.1483C15.926 13.2396 15.1606 14.3624 14.0495 15.0875V17.5904H17.4075C19.4816 15.6723 20.6174 13.0056 20.5186 10.2454Z" fill="#4285F4"/>
<path id="Vector_3" d="M14.0496 15.111C11.1113 16.9121 7.1854 16.1168 5.28417 13.3332C4.98787 12.8888 4.74096 12.4209 4.59281 11.9297H1.11133V14.5028C2.86441 17.8712 6.49404 20.0233 10.4694 20.0233C13.0373 20.0934 15.5064 19.2279 17.4076 17.5905L14.0496 15.111Z" fill="#34A853"/>
<path id="Vector_4" d="M4.24691 10.0351C4.24691 9.38016 4.37037 8.74858 4.5679 8.117V5.52051H1.11111C-0.37037 8.35092 -0.37037 11.6959 1.11111 14.5264L4.59259 11.9533C4.37037 11.3217 4.2716 10.6901 4.24691 10.0351Z" fill="#FABB05"/>
<path id="Vector_5" d="M10.4694 3.97655C11.9755 3.95316 13.4076 4.49117 14.494 5.47362L17.4817 2.61982C15.6052 0.912221 13.0866 -0.0234519 10.4694 -6.00421e-05C6.49404 -6.00421e-05 2.86441 2.15199 1.11133 5.52041L4.59281 8.09351C5.40762 5.66076 7.778 3.99994 10.4694 3.97655Z" fill="#E94235"/>
</g>
<defs>
<clipPath id="clip0_22021_17452">
<rect width="64" height="24" fill="white"/>
</clipPath>
</defs>
</svg>
