<svg width="44" height="44" viewBox="0 0 44 44" fill="none" xmlns="http://www.w3.org/2000/svg">
<g id="Tokens">
<g clip-path="url(#clip0_21596_38325)">
<path id="Vector" d="M43.3402 27.3219C40.4019 39.1077 28.4641 46.2797 16.6769 43.3413C4.89523 40.4029 -2.27746 28.4652 0.661606 16.68C3.59861 4.89286 15.5357 -2.28052 27.3194 0.657859C39.1059 3.59623 46.2779 15.5354 43.3395 27.3219H43.3402Z" fill="#F7931A"/>
<path id="Vector_2" d="M32.7081 20.3703C33.6322 17.3511 31.5295 15.3385 28.4801 13.7492L30.1499 9.72183L27.6977 8.70552L26.072 12.6267C25.4282 12.3597 24.7642 12.0993 24.1043 11.841L25.7413 7.89401L23.2913 6.87802L21.6209 10.9038C21.0857 10.6946 20.5604 10.4883 20.0521 10.2779L20.0569 10.2653L16.6763 8.86219L15.5914 11.4806C15.5914 11.4806 17.4159 12.1967 17.372 12.2176C18.3648 12.6296 18.4497 13.3402 18.3367 13.8765L16.4345 18.4645C16.5029 18.4933 16.5911 18.5332 16.6866 18.589L16.4282 18.4821L13.7618 24.909C13.5886 25.2034 13.1984 25.6255 12.5041 25.3391C12.524 25.3799 10.7224 24.5997 10.7224 24.5997L9.02126 27.3261L12.2122 28.6488C12.8055 28.8957 13.3855 29.148 13.9567 29.3893L12.2687 33.4636L14.7173 34.4794L16.389 30.4493C17.0549 30.7419 17.7034 31.0171 18.3388 31.2799L16.6744 35.291L19.1259 36.3072L20.8126 32.2416C25.0319 33.714 28.3477 33.8719 30.3091 30.1508C31.8904 27.1543 31.0018 25.1561 28.8954 23.6235C30.617 23.4877 32.0343 22.5809 32.7074 20.3702L32.7081 20.3703ZM25.6665 27.6575C24.4049 30.7019 19.3372 28.1954 17.6745 27.5072L19.9129 22.1108C21.5746 22.8003 26.9817 24.4825 25.6672 27.6576L25.6665 27.6575ZM27.6828 19.5707C26.5337 22.3397 22.321 20.2142 20.9364 19.6404L22.966 14.7459C24.3506 15.3197 28.8809 16.6822 27.6828 19.5707Z" fill="white"/>
</g>
</g>
<defs>
<clipPath id="clip0_21596_38325">
<rect width="44" height="44" rx="22" fill="white"/>
</clipPath>
</defs>
</svg>
