<svg width="34" height="34" viewBox="0 0 34 34" fill="none" xmlns="http://www.w3.org/2000/svg">
<rect width="34" height="34" rx="17" fill="#5878B6"/>
<path d="M17 5.10742V14.9287L9.90527 17.1371L17 5.10742ZM17 5.10742V14.9287L24.0947 17.1371L17 5.10742ZM17 28.8956V22.0617L9.90527 18.1492L17 28.8956ZM17 28.8956V22.0617L24.0947 18.1492L17 28.8956Z" fill="white"/>
<path d="M17 5.10742V14.9287L24.0947 17.1371L17 5.10742ZM17 28.8956V22.0617L24.0947 18.1492L17 28.8956Z" fill="white"/>
<path d="M9.90527 17.1368L17 13.8398V20.6215L9.90527 17.1368ZM24.0947 17.1368L17 13.8398V20.6215L24.0947 17.1368Z" fill="white"/>
<path d="M9.90527 17.1368L17 13.8398V20.6215L9.90527 17.1368Z" fill="white"/>
</svg>
