<svg width="152" height="30" viewBox="0 0 152 30" fill="none" xmlns="http://www.w3.org/2000/svg">
<g id="Group">
<g id="Group_2">
<path id="Vector" d="M6.88917 21.9705C6.88917 24.4351 6.8781 26.8887 6.90024 29.3533C6.90024 29.8352 6.7895 30.0105 6.26901 29.9995C4.37531 29.9667 2.48162 29.9776 0.587918 29.9886C0.167096 29.9886 0.0231304 29.879 0.0231304 29.4409C0.0342046 24.5555 -0.0543894 19.6812 0.0563532 14.7958C0.144947 10.3925 1.90575 6.64632 5.27233 3.68883C7.01099 2.16627 9.01543 1.05995 11.2746 0.501315C13.6777 -0.0901827 16.114 -0.188766 18.5725 0.369871C23.722 1.55287 27.2658 4.61989 29.3256 9.35187C30.3112 11.6193 30.6545 14.04 30.3445 16.5484C29.7354 21.4995 27.2658 25.2347 23.0244 27.8526C20.7431 29.2656 18.2181 29.9338 15.5271 29.9776C14.3975 29.9886 13.2679 29.9667 12.1384 29.9886C11.7397 29.9995 11.6068 29.8571 11.6068 29.4628C11.6179 27.5569 11.629 25.64 11.6068 23.734C11.6068 23.2959 11.7618 23.1863 12.1827 23.1973C13.2347 23.2192 14.2868 23.2192 15.3388 23.1973C18.7054 23.1316 21.1528 21.5542 22.6921 18.6406C25.2392 13.821 22.2492 8.13602 17.0775 6.92016C12.9136 5.94528 8.56138 8.44272 7.28784 12.5942C7.03314 13.4157 6.92239 14.292 6.90024 15.1573C6.85595 17.4247 6.88917 19.7031 6.88917 21.9705Z" fill="#E41B38"/>
<path id="Vector_2" d="M11.7291 18.6193C11.7291 17.0419 11.563 15.5303 11.7734 14.0845C12.0059 12.4962 13.6892 11.4227 14.996 11.4337C16.7568 11.4556 17.9639 12.1566 18.5951 13.6025C19.4478 15.5523 18.3515 17.9182 16.2584 18.4002C15.3282 18.6193 14.3315 18.5645 13.3681 18.6083C12.8254 18.6412 12.2717 18.6193 11.7291 18.6193Z" fill="#E41B38"/>
</g>
<g id="Group_3">
<path id="Vector_3" d="M51.4667 18.1738C53.4837 17.4374 54.8764 15.3709 54.8764 12.8886C54.8764 10.9171 53.9279 9.02874 52.3911 7.95984C51.0825 7.05721 49.7018 6.86719 47.8889 6.86719H42.6543V25.1572H45.4997V9.70571H47.4327C49.0175 9.70571 50.062 9.70571 50.8424 10.4064C51.5507 11.0478 51.8989 11.8673 51.8989 12.9243C51.8989 14.6108 50.6383 15.7509 48.7773 15.7509H46.112L51.9589 25.1572H55.3446L51.2866 18.6726C51.1665 18.4707 51.2626 18.245 51.4667 18.1738Z" fill="white" fill-opacity="0.87"/>
<path id="Vector_4" d="M63.1002 10.6445C58.8501 10.6445 55.7646 13.7087 55.7646 17.9249C55.7646 21.9511 59.0182 25.229 63.0282 25.229C66.1017 25.229 68.5029 23.5426 69.7876 20.4903C69.7876 20.4903 70.1357 19.9083 70.0157 19.7777C69.9316 19.6827 69.6675 19.7064 69.6675 19.7064H67.3263C67.3263 19.7064 67.1343 19.7064 67.0262 19.7539C66.9302 19.8014 66.8701 20.039 66.8701 20.039C66.1257 21.6304 64.697 22.533 62.9802 22.533C60.7591 22.533 59.1022 21.1435 58.694 19.0176H69.6675C69.6675 19.0176 69.9797 19.0532 70.1117 18.9344C70.2678 18.7919 70.2438 18.3287 70.2438 18.3287C70.2318 13.8037 67.3023 10.6445 63.1002 10.6445ZM58.7901 16.4997C59.3184 14.5163 60.8431 13.3168 62.8601 13.3168C65.0452 13.3168 66.4379 14.3619 67.1102 16.4997H58.7901Z" fill="white" fill-opacity="0.87"/>
<path id="Vector_5" d="M93.7279 10.5977C89.802 10.5977 86.6084 13.8875 86.6084 17.9493C86.6084 21.9636 89.85 25.2297 93.848 25.2297C97.81 25.2297 101.04 21.8923 101.04 17.783C101.04 13.8162 97.7619 10.5977 93.7279 10.5977ZM93.848 22.5218C91.3628 22.5218 89.4778 20.5384 89.4778 17.9137C89.4778 15.0158 91.6269 13.2818 93.7039 13.2818C96.2852 13.2818 98.1702 15.2177 98.1702 17.8899C98.1702 20.5384 96.3092 22.5218 93.848 22.5218Z" fill="white" fill-opacity="0.87"/>
<path id="Vector_6" d="M148.223 10.9648L144.453 20.3118L140.851 10.9648H137.73L142.916 24.2311L140.947 28.958H143.961L151.38 10.9648H148.223Z" fill="white" fill-opacity="0.87"/>
<path id="Vector_7" d="M85.5632 6.87891H82.7898C82.7778 6.87891 82.7778 6.87891 82.7778 6.89078V12.1878C81.6132 11.2258 80.1365 10.7269 78.4556 10.7269C74.3736 10.7269 71.2881 13.8267 71.2881 17.9361C71.2881 22.0097 74.4336 25.2164 78.4556 25.2164C80.0644 25.2164 81.5892 24.6939 82.7778 23.7556V24.872C82.7778 24.8839 82.7778 24.8839 82.7898 24.8839H85.5632C85.5752 24.8839 85.5752 24.8839 85.5752 24.872L85.5632 6.87891ZM78.5517 22.5442C76.3786 22.5442 74.1335 20.7865 74.1335 17.841C74.1335 15.3707 76.0905 13.3517 78.5037 13.3517C80.4126 13.3517 82.4416 14.9313 82.7778 17.3541V18.6843C82.4536 20.7746 80.5807 22.5442 78.5517 22.5442Z" fill="white" fill-opacity="0.87"/>
<path id="Vector_8" d="M136.854 11.0116H134.081C134.069 11.0116 134.069 11.0116 134.069 11.0235V12.1755C132.928 11.2254 131.475 10.7266 129.854 10.7266C125.688 10.7266 122.543 13.8501 122.543 18.0069C122.543 22.1163 125.628 25.2161 129.71 25.2161C131.367 25.2161 132.916 24.6816 134.069 23.7434V24.8716C134.069 24.8835 134.069 24.8835 134.081 24.8835H136.854C136.866 24.8835 136.866 24.8835 136.866 24.8716L136.854 11.0116C136.866 11.0116 136.866 11.0116 136.854 11.0116ZM129.758 22.5438C127.345 22.5438 125.388 20.5367 125.388 18.0545C125.388 15.109 127.633 13.3513 129.806 13.3513C131.956 13.3513 133.925 15.3347 134.069 17.5794V18.1376C133.925 20.7861 131.775 22.5438 129.758 22.5438Z" fill="white" fill-opacity="0.87"/>
<path id="Vector_9" d="M120.056 7.65089C118.952 7.00955 117.487 6.87891 115.65 6.87891H113.753H112.289H111.94C111.652 6.87891 111.424 7.10456 111.424 7.3896V24.6464C111.424 24.9314 111.652 25.1571 111.94 25.1571H113.753C114.041 25.1571 114.269 24.9314 114.269 24.6464V17.9479H115.95C118.051 17.9479 119.324 17.6629 120.369 16.9859C121.845 16.012 122.722 14.2899 122.722 12.3659C122.698 10.335 121.761 8.6604 120.056 7.65089ZM116.178 15.0857H114.257V9.70555H116.034C119.072 9.70555 119.696 10.7982 119.696 12.4372C119.684 13.7436 119.276 15.0857 116.178 15.0857Z" fill="white" fill-opacity="0.87"/>
<path id="Vector_10" d="M109.72 22.1397H108.051C108.051 22.1397 108.051 22.1397 108.039 22.1397C106.935 21.6647 106.767 20.192 106.755 19.3962V19.0162C106.755 18.9806 106.755 18.8737 106.755 18.8737V14.3843H109.012C109.288 14.3843 109.516 14.1586 109.516 13.8855V12.1159C109.516 11.8427 109.288 11.617 109.012 11.617H106.755V9.77616C106.755 9.503 106.527 9.27734 106.25 9.27734H104.462C104.185 9.27734 103.957 9.503 103.957 9.77616V11.6052H101.76C101.484 11.6052 101.256 11.8308 101.256 12.104V13.8736C101.256 14.1468 101.484 14.3724 101.76 14.3724H103.957V21.2134C103.993 21.9378 104.329 24.3013 107.199 24.8595C107.271 24.8714 107.283 24.8951 107.355 24.907H109.72C109.996 24.907 110.224 24.6813 110.224 24.4082V22.6386C110.224 22.3654 109.996 22.1397 109.72 22.1397Z" fill="white" fill-opacity="0.87"/>
</g>
</g>
</svg>
